<svg width="32" height="32" viewBox="0 0 32 32" fill="none" xmlns="http://www.w3.org/2000/svg">
<path fill-rule="evenodd" clip-rule="evenodd" d="M27.6666 22.2853C27.6649 22.3493 27.6587 22.413 27.6479 22.476C27.676 22.6208 27.6718 22.7699 27.6355 22.9128C27.5992 23.0558 27.5317 23.1889 27.4379 23.3027C27.3442 23.4165 27.2264 23.5081 27.093 23.571C26.9597 23.634 26.814 23.6666 26.6666 23.6667H7.99992C7.78105 23.6667 7.56432 23.7098 7.36211 23.7935C7.1599 23.8773 6.97617 24.0001 6.82141 24.1548C6.66664 24.3096 6.54388 24.4933 6.46012 24.6955C6.37636 24.8977 6.33325 25.1145 6.33325 25.3333C6.33325 25.5522 6.37636 25.7689 6.46012 25.9711C6.54388 26.1733 6.66664 26.3571 6.82141 26.5118C6.97617 26.6666 7.1599 26.7894 7.36211 26.8731C7.56432 26.9569 7.78105 27 7.99992 27H26.6666C26.9318 27 27.1862 27.1054 27.3737 27.2929C27.5612 27.4804 27.6666 27.7348 27.6666 28C27.6666 28.2652 27.5612 28.5196 27.3737 28.7071C27.1862 28.8946 26.9318 29 26.6666 29H7.99992C7.02746 29 6.09483 28.6137 5.40719 27.9261C4.71956 27.2384 4.33325 26.3058 4.33325 25.3333V6.66667C4.33325 5.69421 4.71956 4.76158 5.40719 4.07394C6.09483 3.38631 7.02746 3 7.99992 3H25.8666C26.8613 3 27.6666 3.80533 27.6666 4.8V22.2853ZM11.9999 8.33333C11.7347 8.33333 11.4803 8.43869 11.2928 8.62623C11.1053 8.81376 10.9999 9.06812 10.9999 9.33333C10.9999 9.59855 11.1053 9.8529 11.2928 10.0404C11.4803 10.228 11.7347 10.3333 11.9999 10.3333H19.9999C20.2651 10.3333 20.5195 10.228 20.707 10.0404C20.8946 9.8529 20.9999 9.59855 20.9999 9.33333C20.9999 9.06812 20.8946 8.81376 20.707 8.62623C20.5195 8.43869 20.2651 8.33333 19.9999 8.33333H11.9999Z" fill="#EEFFEE"/>
</svg>
