<svg width="22" height="27" viewBox="0 0 22 27" fill="none" xmlns="http://www.w3.org/2000/svg">
<path d="M17.3333 9.33333V6.66667C17.3333 2.93333 14.4 0 10.6667 0C6.93333 0 4 2.93333 4 6.66667V9.33333C1.73333 9.33333 0 11.0667 0 13.3333V22.6667C0 24.9333 1.73333 26.6667 4 26.6667H17.3333C19.6 26.6667 21.3333 24.9333 21.3333 22.6667V13.3333C21.3333 11.0667 19.6 9.33333 17.3333 9.33333ZM6.66667 6.66667C6.66667 4.4 8.4 2.66667 10.6667 2.66667C12.9333 2.66667 14.6667 4.4 14.6667 6.66667V9.33333H6.66667V6.66667ZM12 20C12 20.8 11.4667 21.3333 10.6667 21.3333C9.86667 21.3333 9.33333 20.8 9.33333 20V16C9.33333 15.2 9.86667 14.6667 10.6667 14.6667C11.4667 14.6667 12 15.2 12 16V20Z" fill="#EEFFEE"/>
</svg>
