<svg width="32" height="32" viewBox="0 0 32 32" fill="none" xmlns="http://www.w3.org/2000/svg">
<path d="M28 27.9998L22.2094 22.2091M22.2094 22.2091C23.1999 21.2186 23.9856 20.0427 24.5217 18.7485C25.0577 17.4543 25.3336 16.0673 25.3336 14.6665C25.3336 13.2657 25.0577 11.8786 24.5217 10.5844C23.9856 9.29022 23.1999 8.1143 22.2094 7.12379C21.2188 6.13327 20.0429 5.34755 18.7488 4.81148C17.4546 4.27542 16.0675 3.99951 14.6667 3.99951C13.2659 3.99951 11.8788 4.27542 10.5846 4.81148C9.29046 5.34755 8.11455 6.13327 7.12403 7.12379C5.12359 9.12423 3.99976 11.8374 3.99976 14.6665C3.99976 17.4955 5.12359 20.2087 7.12403 22.2091C9.12447 24.2096 11.8376 25.3334 14.6667 25.3334C17.4957 25.3334 20.2089 24.2096 22.2094 22.2091Z" stroke="#EEFFEE" stroke-width="2.5" stroke-linecap="round" stroke-linejoin="round"/>
</svg>
